<?xml version="1.0" encoding="UTF-8" standalone="no"?>
<svg
   version="1.1"
   width="1798.6748"
   height="471.1792"
   id="svg26648"
   sodipodi:docname="nrfv24 MOBILIDADE.svg"
   inkscape:version="1.3.1 (91b66b0783, 2023-11-16)"
   xml:space="preserve"
   xmlns:inkscape="http://www.inkscape.org/namespaces/inkscape"
   xmlns:sodipodi="http://sodipodi.sourceforge.net/DTD/sodipodi-0.dtd"
   xmlns="http://www.w3.org/2000/svg"
   xmlns:svg="http://www.w3.org/2000/svg"><sodipodi:namedview
     id="namedview26650"
     pagecolor="#ffffff"
     bordercolor="#666666"
     borderopacity="1.0"
     inkscape:pageshadow="2"
     inkscape:pageopacity="0.0"
     inkscape:pagecheckerboard="0"
     showgrid="false"
     inkscape:zoom="0.16000001"
     inkscape:cx="14516.689"
     inkscape:cy="-3364.733"
     inkscape:window-width="1350"
     inkscape:window-height="728"
     inkscape:window-x="0"
     inkscape:window-y="0"
     inkscape:window-maximized="0"
     inkscape:current-layer="svg26648"
     inkscape:showpageshadow="2"
     inkscape:deskcolor="#d1d1d1" /><defs
     id="defs14"><linearGradient
       id="swatch2"
       inkscape:swatch="solid"><stop
         style="stop-color:#faae00;stop-opacity:1;"
         offset="0"
         id="stop2" /></linearGradient></defs><defs
     id="defs8190" /><defs
     id="defs8987" /><defs
     id="defs16539" /><defs
     id="defs16548" /><defs
     id="defs16557" /><defs
     id="defs16566" /><defs
     id="defs16575" /><defs
     id="defs16584" /><defs
     id="defs16593" /><defs
     id="defs16694" /><defs
     id="defs16703" /><defs
     id="defs16712" /><defs
     id="defs16721" /><defs
     id="defs16730" /><defs
     id="defs16739" /><defs
     id="defs16748" /><defs
     id="defs16952" /><defs
     id="defs16961" /><defs
     id="defs16970" /><defs
     id="defs16979" /><defs
     id="defs16988" /><defs
     id="defs16997" /><defs
     id="defs17006" /><defs
     id="defs17179" /><defs
     id="defs17188" /><defs
     id="defs17197" /><defs
     id="defs17206" /><defs
     id="defs17215" /><defs
     id="defs17224" /><defs
     id="defs17233" /><defs
     id="defs17488" /><defs
     id="defs17575" /><defs
     id="defs17584" /><defs
     id="defs17593" /><defs
     id="defs17602" /><defs
     id="defs17611" /><defs
     id="defs17620" /><defs
     id="defs17629" /><defs
     id="defs21862" /><rect
     style="fill:#000000;stroke:#ffffff;stroke-width:2.34969;stroke-linejoin:round;stroke-dasharray:none;stroke-opacity:1;paint-order:markers fill stroke"
     id="rect11-9-4-4-8-87-5-4"
     width="408.48773"
     height="344.39572"
     x="558.32031"
     y="1.1749935"
     ry="2.1372075"
     transform="matrix(1,0,-0.41052542,0.91184915,0,0)"
     inkscape:export-filename="..\..\LOGOS E VETORES WTBUS\logo.png"
     inkscape:export-xdpi="96"
     inkscape:export-ydpi="96" /><rect
     style="fill:#000000;stroke:#ffffff;stroke-width:2.34969;stroke-linejoin:round;stroke-dasharray:none;stroke-opacity:1;paint-order:markers fill stroke"
     id="rect11-8-7-4-2-5-5"
     width="408.48773"
     height="344.39572"
     x="142.4277"
     y="1.1749935"
     ry="2.1372075"
     transform="matrix(1,0,-0.41052542,0.91184915,0,0)" /><rect
     style="fill:#000000;stroke:#ffffff;stroke-width:2.34969;stroke-linejoin:round;stroke-dasharray:none;stroke-opacity:1;paint-order:markers fill stroke"
     id="rect11-9-6-3-5-6-62-3-4"
     width="408.48773"
     height="344.39572"
     x="974.21484"
     y="1.1749935"
     ry="2.1372075"
     transform="matrix(1,0,-0.41052542,0.91184915,0,0)" /><rect
     style="fill:#000000;stroke:#ffffff;stroke-width:2.34969;stroke-linejoin:round;stroke-dasharray:none;stroke-opacity:1;paint-order:markers fill stroke"
     id="rect11-9-6-0-9-8-1-8-0-1"
     width="408.48773"
     height="344.39572"
     x="1390.1074"
     y="1.1749935"
     ry="2.1372075"
     transform="matrix(1,0,-0.41052542,0.91184915,0,0)" /><g
     id="g40-9-34-9-5-6-9"
     transform="matrix(0.67889176,0,0,0.67889176,-5549.6762,-1649.6238)"><rect
       style="fill:#ffffff;fill-opacity:1;stroke:#000000;stroke-width:0.990611;stroke-linejoin:round;stroke-dasharray:none;stroke-opacity:1;paint-order:markers fill stroke"
       id="rect22-4-9-8-8-0-5-4-0"
       width="26.105513"
       height="44.853245"
       x="9693.3975"
       y="2793.7876"
       ry="8.2125206" /><rect
       style="fill:#ffffff;fill-opacity:1;stroke:#000000;stroke-width:0.990611;stroke-linejoin:round;stroke-dasharray:none;stroke-opacity:1;paint-order:markers fill stroke"
       id="rect22-9-7-3-7-3-3-81-1-3"
       width="26.105513"
       height="44.853245"
       x="9865.4385"
       y="2793.8372"
       ry="8.2125206" /><path
       id="path18-6-3-3-4-4-27-4-4"
       style="fill:#ffffff;stroke:#000000;stroke-width:1.04918px;stroke-linecap:butt;stroke-linejoin:miter;stroke-opacity:1"
       d="m 9844.5638,2509.2776 -88.067,0.3238 -16.718,-0.062 v 0.123 l -6.697,0.024 -43.4429,2.0493 -4.9186,9.4263 -6.1471,31.5574 -1.6399,150.8203 -1.2297,4.5082 0.4103,81.5576 1.2296,11.0657 1.6399,2.8688 h 2.8685 l 15.574,-2.8688 31.9669,-2.0492 23.634,0.051 v 0.035 l 84.588,0.1455 17.32,0.03 31.967,2.0491 15.574,2.8689 h 2.868 l 1.64,-2.8689 1.23,-11.0656 0.409,-81.5576 -1.229,-4.5082 -1.64,-150.8203 -6.147,-31.5574 -4.918,-9.4263 -43.443,-2.0493 -6.707,-0.024 z" /><path
       style="fill:#000000;stroke:#000000;stroke-width:1.04918px;stroke-linecap:butt;stroke-linejoin:miter;stroke-opacity:1"
       d="m 9682.8622,2725.8459 28.6344,13.4501 16.2022,6.1532 7.494,10.1743 -25.7443,-11.6992 5.1274,21.4667 -28.0279,-20.113 -2.2988,-4.6463 z"
       id="path19-2-9-9-27-5-6-7-1" /><path
       id="path20-2-2-5-6-9-87-1-3"
       style="fill:none;stroke:#000000;stroke-width:2.249;stroke-linecap:butt;stroke-linejoin:miter;stroke-dasharray:none;stroke-opacity:1"
       d="m 9799.7888,2509.1854 -9.559,0.1189 -5.794,-0.071 v 0.1434 l -44.68,0.2745 -32.2399,1.6091 3.1109,17.9258 18.178,18.9141 13.918,-1.9713 44.476,-0.2132 54.291,0.2603 13.92,1.9713 18.178,-18.914 3.109,-17.8364 -34.264,-1.8552 -42.661,-0.1179 z"
       sodipodi:nodetypes="ccccccccccccccccc" /><path
       style="fill:#000000;stroke:#000000;stroke-width:1.04918px;stroke-linecap:butt;stroke-linejoin:miter;stroke-opacity:1"
       d="m 9901.3628,2725.8928 -28.634,13.4501 -16.202,6.1532 -7.494,10.1743 25.744,-11.6992 -5.127,21.4667 28.028,-20.113 2.298,-4.6463 z"
       id="path19-9-4-8-6-0-2-8-9-2" /><path
       id="path21-0-9-9-8-9-879-2-4"
       style="fill:#000000;stroke:#ffffff;stroke-width:1.04918px;stroke-linecap:butt;stroke-linejoin:miter;stroke-opacity:1"
       d="m 9790.4568,2600.7555 v 0.06 l -98.6786,0.7931 -8.2214,5.7028 -2.0082,88.5188 2.0313,4.5165 18.8066,11.1434 20.4633,6.6414 35.242,1.3771 25.078,0.1049 v 0.026 l 3.219,-0.013 13.508,0.056 v -0.1127 l 25.082,-0.1028 35.24,-1.377 20.465,-6.6436 18.808,-11.1435 2.028,-4.5164 -2.006,-88.5166 -8.222,-5.705 z" /><rect
       style="fill:#000000;fill-opacity:1;stroke:#ffffff;stroke-width:1.05401;stroke-linejoin:round;stroke-dasharray:none;stroke-opacity:1;paint-order:markers fill stroke"
       id="rect21-8-0-4-6-2-16-2-8"
       width="198.02972"
       height="29.910103"
       x="9693.1719"
       y="2561.4517"
       ry="8.2017965" /><path
       style="fill:#ffffff;stroke:#000000;stroke-width:1.04918px;stroke-linecap:butt;stroke-linejoin:miter;stroke-opacity:1"
       d="m 9678.2017,2612.9245 -18.5611,3.8162 -0.021,3.9959 7.2751,0.03 1.429,1.338 -0.011,2.459 -0.1354,32.4793 -1.4405,1.4284 -12.0908,0.052 -2.5506,-2.5722 0.2414,-33.2986 2.5694,-1.8335 2.7657,0.012 -0.063,-9.2217 7.4009,-5.6044 5.8492,-2.2298 7.2751,0.03 z"
       id="path22-6-0-1-5-2-7-5-1" /><path
       style="fill:#ffffff;stroke:#000000;stroke-width:1.04918px;stroke-linecap:butt;stroke-linejoin:miter;stroke-opacity:1"
       d="m 9906.3018,2609.952 18.561,3.8162 0.02,3.9959 -7.275,0.031 -1.429,1.338 0.01,2.459 0.135,32.4792 1.441,1.4285 12.091,0.052 2.55,-2.5722 -0.241,-33.2986 -2.569,-1.8336 -2.766,0.012 0.06,-9.2217 -7.401,-5.6044 -5.849,-2.2299 -7.275,0.03 z"
       id="path22-5-0-5-8-6-5-0-4-5" /></g><g
     id="g41-00-1-7-05-1-5"
     transform="matrix(0.67889176,0,0,0.67889176,-5537.5002,-1649.6238)"><rect
       style="fill:#ffffff;fill-opacity:1;stroke:#000000;stroke-width:0.812779;stroke-linejoin:round;stroke-dasharray:none;stroke-opacity:1;paint-order:markers fill stroke"
       id="rect30-7-0-1-6-7-8-1-7"
       width="40.039738"
       height="101.56348"
       x="10247.628"
       y="2720.7759"
       ry="10.585955" /><rect
       style="fill:#ffffff;fill-opacity:1;stroke:#000000;stroke-width:0.812779;stroke-linejoin:round;stroke-dasharray:none;stroke-opacity:1;paint-order:markers fill stroke"
       id="rect30-8-7-8-8-8-1-9-2-7"
       width="40.039738"
       height="101.56348"
       x="-10534.99"
       y="2720.5295"
       ry="10.585955"
       transform="scale(-1,1)" /><path
       id="path23-7-0-3-3-17-6-0-2"
       style="fill:#ffffff;stroke:#000000;stroke-width:1.35463px;stroke-linecap:butt;stroke-linejoin:miter;stroke-opacity:1"
       d="m 10417.409,2566.5031 -44.974,0.1853 -7.159,-0.03 -43.92,0.7514 c -4.255,0.1138 -8.475,0.5545 -12.702,1.0053 -2.711,0.7066 -5.164,1.6679 -7.519,3.13 -1.831,1.2051 -3.068,2.7051 -4.287,4.4634 -10.725,18.7738 -19.06,36.7874 -30.31,67.3718 l -8.852,16.3852 c -1.916,4.3887 -3.056,8.9946 -4.267,13.6071 -1.692,10.2042 -2.445,20.312 -2.273,30.6089 l 0.26,15.5333 0.513,9.4004 c -0.328,5.6137 1.054,10.5897 2.605,15.8798 5.242,22.0002 7.784,22.7718 24.71,26.6932 l 58.2,1.8309 24.791,0.418 -0.04,1.016 30.104,-0.508 28.225,0.4762 -0.04,-0.9525 24.788,-0.418 58.202,-1.8309 c 16.926,-3.9214 19.466,-4.693 24.709,-26.693 1.551,-5.2902 2.934,-10.2663 2.606,-15.88 l 0.513,-9.4005 0.259,-15.5331 c 0.172,-10.2968 -0.577,-20.4048 -2.269,-30.609 -1.211,-4.6124 -2.356,-9.2184 -4.271,-13.6071 l -8.853,-16.3852 c -11.25,-30.5844 -19.585,-48.598 -30.309,-67.3718 -1.22,-1.7583 -2.455,-3.2583 -4.287,-4.4634 -2.354,-1.4621 -4.808,-2.4233 -7.519,-3.1299 -4.228,-0.4508 -8.448,-0.8916 -12.702,-1.0054 z" /><path
       style="fill:#000000;stroke:#000000;stroke-width:1.35463px;stroke-linecap:butt;stroke-linejoin:miter;stroke-opacity:1"
       d="m 10265.277,2680.5855 37.04,0.5334 12.34,1.5497 4.102,3.3852 6.655,18.7371 0.362,2.6208 -0.763,3.3643 -2.623,1.1112 -38.16,-1.2865 -19.453,-0.8319 -5.607,-1.5207 -1.104,-4.1207 0.454,-18.7066 1.886,-3.3594 z"
       id="path25-0-5-28-2-9-2-4-6" /><path
       id="path26-4-3-9-5-8-7-0-2"
       style="fill:#000000;stroke:#000000;stroke-width:1.35463px;stroke-linecap:butt;stroke-linejoin:miter;stroke-opacity:1"
       d="m 10448.549,2686.8351 -24.311,1.9737 -15.675,-0.1693 -0.01,0.069 -15.316,0.1639 -18.767,-0.201 h -0.01 l -15.669,0.1693 -24.311,-1.9764 9.263,21.3671 2.973,4.1302 5.974,3.0188 12.346,0.8017 30.777,-0.1274 22.188,0.089 12.343,-0.8017 5.974,-3.0187 2.976,-4.1275 z"
       sodipodi:nodetypes="ccccccccccccccccccc" /><path
       id="path27-3-8-8-8-4-1-3-9"
       style="fill:#000000;stroke:#000000;stroke-width:1.35463px;stroke-linecap:butt;stroke-linejoin:miter;stroke-opacity:1"
       d="m 10425.226,2573.2313 -37.715,0.1614 -29.717,-0.1273 -53.99,2.9421 -18.141,35.3765 -9.644,27.4737 34.95,-6.1991 35.996,-2.4897 29.339,0.6457 -0.04,0.6323 14.401,-0.3175 16.087,0.3545 -0.04,-0.7065 29.344,-0.6454 35.993,2.4922 34.95,6.1991 -9.643,-27.4737 -18.141,-35.3765 z" /><path
       style="fill:#000000;stroke:#000000;stroke-width:1.35463px;stroke-linecap:butt;stroke-linejoin:miter;stroke-opacity:1"
       d="m 10284.458,2744.6512 20.943,2.3351 10.1,0.7917 3.352,3.7561 -2.657,8.5946 -4.495,1.1032 -20.948,-1.2125 -5.973,-3.0191 -1.48,-4.1223 -0.336,-8.9814 z"
       id="path28-1-0-6-36-51-9-7-7" /><path
       id="path29-9-4-2-6-3-83-5-0"
       style="fill:#000000;stroke:#000000;stroke-width:1.35463px;stroke-linecap:butt;stroke-linejoin:miter;stroke-opacity:1"
       d="m 10442.823,2747.8491 -26.934,1.6113 -10.574,-0.058 -0.01,-0.1165 -10.577,0.058 -16.994,-0.092 -0.03,0.1879 -10.567,0.058 -26.932,-1.6139 4.427,14.2369 4.101,3.7596 15.338,0.8148 28.789,-0.3676 26.105,0.3332 15.34,-0.8148 4.099,-3.7596 z" /><path
       style="fill:#ffffff;stroke:#000000;stroke-width:1.35463px;stroke-linecap:butt;stroke-linejoin:miter;stroke-opacity:1"
       d="m 10271.022,2632.1587 -4.749,-2.9308 0.04,-10.5829 -1.767,-2.5937 -1.125,-1.652 -2.046,-0.084 -12.239,-0.506 -8.021,2.4648 -4.442,4.0962 -1.608,4.7554 0.491,8.9979 2.626,4.509 4.223,2.3995 13.496,-0.4713 11.101,2.429 z"
       id="path30-8-6-1-1-0-39-3-5"
       sodipodi:nodetypes="ccccccccccccccc" /><path
       style="fill:#000000;stroke:#000000;stroke-width:1.35463px;stroke-linecap:butt;stroke-linejoin:miter;stroke-opacity:1"
       d="m 10517.742,2680.5502 -37.039,0.5333 -12.341,1.5497 -4.102,3.3852 -6.655,18.7372 -0.362,2.6208 0.763,3.3642 2.624,1.1112 38.16,-1.2865 19.452,-0.8319 5.607,-1.5207 1.104,-4.1206 -0.454,-18.7067 -1.885,-3.3593 z"
       id="path25-4-7-8-4-09-4-0-9-5" /><path
       style="fill:#000000;stroke:#000000;stroke-width:1.35463px;stroke-linecap:butt;stroke-linejoin:miter;stroke-opacity:1"
       d="m 10498.561,2744.6159 -20.943,2.3351 -10.1,0.7916 -3.351,3.7562 2.656,8.5945 4.495,1.1033 20.948,-1.2126 5.974,-3.019 1.479,-4.1223 0.336,-8.9815 z"
       id="path28-8-2-1-8-6-4-16-9-3" /><path
       style="fill:#ffffff;stroke:#000000;stroke-width:1.35463px;stroke-linecap:butt;stroke-linejoin:miter;stroke-opacity:1"
       d="m 10511.997,2632.1233 4.75,-2.9307 -0.04,-10.5829 1.766,-2.5938 1.126,-1.6519 2.046,-0.084 12.239,-0.5061 8.021,2.4649 4.441,4.0961 1.608,4.7555 -0.49,8.9978 -2.627,4.5091 -4.222,2.3994 -13.496,-0.4713 -11.101,2.429 z"
       id="path30-0-5-1-4-6-9-7-5-9"
       sodipodi:nodetypes="ccccccccccccccc" /><ellipse
       style="fill:#ffffff;fill-opacity:1;stroke:#000000;stroke-width:0.79373;stroke-linejoin:round;stroke-dasharray:none;stroke-opacity:1;paint-order:markers fill stroke"
       id="path31-5-7-3-2-3-3-4-0"
       cx="10334.554"
       cy="2557.9446"
       rx="9.1737766"
       ry="8.929431" /><ellipse
       style="fill:#000000;fill-opacity:1;stroke:#000000;stroke-width:0.593117;stroke-linejoin:round;stroke-dasharray:none;stroke-opacity:1;paint-order:markers fill stroke"
       id="path31-9-6-1-0-91-4-99-0-3"
       cx="10334.632"
       cy="2557.8569"
       rx="6.8551321"
       ry="6.672544" /><ellipse
       style="fill:#ffffff;fill-opacity:1;stroke:#000000;stroke-width:0.79373;stroke-linejoin:round;stroke-dasharray:none;stroke-opacity:1;paint-order:markers fill stroke"
       id="path31-3-7-2-4-9-04-1-6-4"
       cx="10373.451"
       cy="2557.4915"
       rx="9.1737766"
       ry="8.929431" /><ellipse
       style="fill:#000000;fill-opacity:1;stroke:#000000;stroke-width:0.593117;stroke-linejoin:round;stroke-dasharray:none;stroke-opacity:1;paint-order:markers fill stroke"
       id="path31-9-2-2-4-5-3-9-17-4-5"
       cx="10373.529"
       cy="2557.4038"
       rx="6.8551321"
       ry="6.672544" /><ellipse
       style="fill:#ffffff;fill-opacity:1;stroke:#000000;stroke-width:0.79373;stroke-linejoin:round;stroke-dasharray:none;stroke-opacity:1;paint-order:markers fill stroke"
       id="path31-7-1-3-0-9-4-66-3-0"
       cx="-10447.469"
       cy="2557.6982"
       rx="9.1737766"
       ry="8.929431"
       transform="scale(-1,1)" /><ellipse
       style="fill:#000000;fill-opacity:1;stroke:#000000;stroke-width:0.593117;stroke-linejoin:round;stroke-dasharray:none;stroke-opacity:1;paint-order:markers fill stroke"
       id="path31-9-23-1-2-1-8-2-9-5-2"
       cx="-10447.391"
       cy="2557.6106"
       rx="6.8551321"
       ry="6.672544"
       transform="scale(-1,1)" /><ellipse
       style="fill:#ffffff;fill-opacity:1;stroke:#000000;stroke-width:0.79373;stroke-linejoin:round;stroke-dasharray:none;stroke-opacity:1;paint-order:markers fill stroke"
       id="path31-3-4-0-4-0-0-6-90-6-7"
       cx="-10408.572"
       cy="2557.2451"
       rx="9.1737766"
       ry="8.929431"
       transform="scale(-1,1)" /><ellipse
       style="fill:#000000;fill-opacity:1;stroke:#000000;stroke-width:0.593117;stroke-linejoin:round;stroke-dasharray:none;stroke-opacity:1;paint-order:markers fill stroke"
       id="path31-9-2-1-4-0-9-4-3-3-1-6"
       cx="-10408.494"
       cy="2557.1575"
       rx="6.8551321"
       ry="6.672544"
       transform="scale(-1,1)" /></g><g
     id="g38-3-0-9-35-9-8"
     transform="matrix(0.67889176,0,0,0.67889176,-5537.5002,-1649.6238)"><rect
       style="fill:#ffffff;fill-opacity:1;stroke:none;stroke-width:1.148;stroke-linejoin:round;stroke-dasharray:none;stroke-opacity:1;paint-order:markers fill stroke"
       id="rect10-1-3-0-7-0-4-4"
       width="12.429611"
       height="9.9436893"
       x="-8724.2402"
       y="2747.447"
       ry="3.8669903"
       transform="scale(-1,1)" /><rect
       style="fill:#ffffff;fill-opacity:1;stroke:none;stroke-width:1.148;stroke-linejoin:round;stroke-dasharray:none;stroke-opacity:1;paint-order:markers fill stroke"
       id="rect7-9-77-6-2-7-4-4"
       width="11.048544"
       height="48.61359"
       x="8420.3418"
       y="2760.1445" /><rect
       style="opacity:1;fill:#ffffff;fill-opacity:1;stroke:none;stroke-width:1.148;stroke-linejoin:round;stroke-dasharray:none;stroke-opacity:1;paint-order:markers fill stroke"
       id="rect10-4-76-5-4-6-7"
       width="12.429611"
       height="9.9436893"
       x="8355.6104"
       y="2747.2405"
       ry="3.8669903" /><path
       style="fill:#ffffff;fill-opacity:1;stroke:#000000;stroke-width:1px;stroke-linecap:butt;stroke-linejoin:miter;stroke-opacity:1"
       d="m 8475.5844,2731.4184 -1.9335,4.4194 -3.0384,1.1049 -187.0077,-14.8543 -3.3203,2.1485 -2.1484,3.3203 -0.9766,4.4922 1.5625,5.0781 3.125,3.125 89.6484,11.7188 15.2344,2.539 18.5547,3.9063 33.9844,8.789 38.2812,13.4766 2.1485,1.5625 3.5156,4.6875 2.3437,1.9531 2.9297,1.5625 5.8594,0.7813 18.9453,0.1953 5.4688,-0.9766 6.6406,-2.3437 5.2734,-2.9297 0.7813,-0.586"
       id="path2-2-14-21-7-8-0-7" /><ellipse
       style="fill:#ffffff;fill-opacity:1;stroke:#000000;stroke-width:1.675;stroke-linejoin:round;stroke-dasharray:none;stroke-opacity:1;paint-order:markers fill stroke"
       id="path3-8-0-5-3-1-7-1-5"
       cx="8361.9326"
       cy="2783.3662"
       rx="30.273438"
       ry="29.35606" /><ellipse
       style="fill:#000000;fill-opacity:1;stroke:none;stroke-width:1.148;stroke-linejoin:round;stroke-dasharray:none;stroke-opacity:1;paint-order:markers fill stroke"
       id="path3-2-0-9-9-4-4-7"
       cx="8362.2178"
       cy="2782.8306"
       rx="25.097656"
       ry="24.414062" /><path
       style="fill:#ffffff;fill-opacity:1;stroke:none;stroke-width:1px;stroke-linecap:butt;stroke-linejoin:miter;stroke-opacity:1"
       d="m 8481.2611,2694.7447 -137.8907,-28.9063 0.7813,4.2969 133.5937,38.2813 z"
       id="path4-3-0-4-1-78-2-3" /><path
       style="fill:#ffffff;fill-opacity:1;stroke:none;stroke-width:1px;stroke-linecap:butt;stroke-linejoin:miter;stroke-opacity:1"
       d="m 8531.3795,2660.4315 6.0767,-206.0553 1.6174,-1.1354 1.7578,1.2695 4.3588,207.3023 z"
       id="path5-2-4-7-29-23-9-7" /><ellipse
       style="fill:#ffffff;fill-opacity:1;stroke:none;stroke-width:1.2438;stroke-linejoin:round;stroke-dasharray:none;stroke-opacity:1;paint-order:markers fill stroke"
       id="path6-4-5-9-7-7-25-0-0"
       cx="8538.6182"
       cy="2625.2791"
       rx="30.88802"
       ry="35.721756" /><rect
       style="opacity:1;fill:#ffffff;fill-opacity:1;stroke:none;stroke-width:1.148;stroke-linejoin:round;stroke-dasharray:none;stroke-opacity:1;paint-order:markers fill stroke"
       id="rect9-7-90-0-92-5-2"
       width="22.373301"
       height="9.9436893"
       x="8414.9961"
       y="2808.0076"
       ry="3.8669903"
       rx="0" /><ellipse
       style="fill:#ffffff;fill-opacity:1;stroke:#000000;stroke-width:1.16326;stroke-linejoin:round;stroke-dasharray:none;stroke-opacity:1;paint-order:markers fill stroke"
       id="path6-45-5-3-9-2-87-8"
       cx="8538.8379"
       cy="2617.8945"
       rx="30.928291"
       ry="31.204504" /><circle
       style="fill:#000000;fill-opacity:1;stroke:none;stroke-width:1.34548;stroke-linejoin:round;stroke-dasharray:none;stroke-opacity:1;paint-order:markers fill stroke"
       id="path7-5-2-5-7-53-6-9"
       cx="8538.8789"
       cy="2617.9868"
       r="23.33876" /><rect
       style="fill:#ffffff;fill-opacity:1;stroke:none;stroke-width:1.148;stroke-linejoin:round;stroke-dasharray:none;stroke-opacity:1;paint-order:markers fill stroke"
       id="rect8-7-28-9-1-82-6-3"
       width="12.429611"
       height="30.383495"
       x="8403.2168"
       y="2798.262"
       ry="3.8669903" /><rect
       style="fill:#ffffff;fill-opacity:1;stroke:none;stroke-width:1.148;stroke-linejoin:round;stroke-dasharray:none;stroke-opacity:1;paint-order:markers fill stroke"
       id="rect8-5-6-68-7-0-80-9-7"
       width="12.429611"
       height="30.383495"
       x="8436.334"
       y="2798.7061"
       ry="3.8669903" /><rect
       style="fill:#ffffff;fill-opacity:1;stroke:none;stroke-width:1.148;stroke-linejoin:round;stroke-dasharray:none;stroke-opacity:1;paint-order:markers fill stroke"
       id="rect7-9-0-7-77-7-0-0-8"
       width="11.048544"
       height="48.61359"
       x="-8659.5088"
       y="2760.3511"
       transform="scale(-1,1)" /><path
       style="fill:#ffffff;fill-opacity:1;stroke:#000000;stroke-width:1px;stroke-linecap:butt;stroke-linejoin:miter;stroke-opacity:1"
       d="m 8604.2657,2731.6249 1.9335,4.4194 3.0384,1.1049 187.0077,-14.8543 3.3203,2.1485 2.1484,3.3203 0.9766,4.4922 -1.5625,5.0781 -3.125,3.125 -89.6484,11.7188 -15.2344,2.539 -18.5547,3.9063 -33.9844,8.789 -38.2812,13.4766 -2.1485,1.5625 -3.5156,4.6875 -2.3437,1.9531 -2.9297,1.5625 -5.8594,0.7813 -18.9453,0.1953 -5.4688,-0.9766 -6.6406,-2.3437 -5.2734,-2.9297 -0.7813,-0.586"
       id="path2-2-6-7-8-6-3-7-8" /><ellipse
       style="fill:#ffffff;fill-opacity:1;stroke:#000000;stroke-width:1.675;stroke-linejoin:round;stroke-dasharray:none;stroke-opacity:1;paint-order:markers fill stroke"
       id="path3-8-0-1-0-86-2-0-1-7"
       cx="-8717.918"
       cy="2783.5728"
       rx="30.273438"
       ry="29.35606"
       transform="scale(-1,1)" /><ellipse
       style="fill:#000000;fill-opacity:1;stroke:none;stroke-width:1.148;stroke-linejoin:round;stroke-dasharray:none;stroke-opacity:1;paint-order:markers fill stroke"
       id="path3-2-4-38-98-0-8-4-7"
       cx="-8717.6328"
       cy="2783.0371"
       rx="25.097656"
       ry="24.414062"
       transform="scale(-1,1)" /><path
       style="fill:#ffffff;fill-opacity:1;stroke:none;stroke-width:1px;stroke-linecap:butt;stroke-linejoin:miter;stroke-opacity:1"
       d="m 8598.589,2694.9512 137.8907,-28.9063 -0.7813,4.2969 -133.5937,38.2813 z"
       id="path4-3-2-8-7-9-3-2-6" /><rect
       style="fill:#ffffff;fill-opacity:1;stroke:none;stroke-width:1.148;stroke-linejoin:round;stroke-dasharray:none;stroke-opacity:1;paint-order:markers fill stroke"
       id="rect9-0-3-6-7-2-0-7"
       width="22.373301"
       height="9.9436893"
       x="-8664.8545"
       y="2808.2141"
       ry="3.8669903"
       rx="0"
       transform="scale(-1,1)" /><rect
       style="fill:#ffffff;fill-opacity:1;stroke:none;stroke-width:1.148;stroke-linejoin:round;stroke-dasharray:none;stroke-opacity:1;paint-order:markers fill stroke"
       id="rect8-7-8-2-8-5-9-2-3"
       width="12.429611"
       height="30.383495"
       x="-8676.6338"
       y="2798.4685"
       ry="3.8669903"
       transform="scale(-1,1)" /><rect
       style="fill:#ffffff;fill-opacity:1;stroke:none;stroke-width:1.148;stroke-linejoin:round;stroke-dasharray:none;stroke-opacity:1;paint-order:markers fill stroke"
       id="rect8-5-6-2-9-2-3-45-8-5"
       width="12.429611"
       height="30.383495"
       x="-8643.5166"
       y="2798.9126"
       ry="3.8669903"
       transform="scale(-1,1)" /><rect
       style="fill:#ffffff;fill-opacity:1;stroke:none;stroke-width:1.148;stroke-linejoin:round;stroke-dasharray:none;stroke-opacity:1;paint-order:markers fill stroke"
       id="rect7-9-0-36-1-4-40-6-0-5"
       width="11.048544"
       height="48.61359"
       x="-8545.4072"
       y="2760.8262"
       transform="scale(-1,1)" /><rect
       style="fill:#ffffff;fill-opacity:1;stroke:none;stroke-width:1.148;stroke-linejoin:round;stroke-dasharray:none;stroke-opacity:1;paint-order:markers fill stroke"
       id="rect9-0-2-09-7-9-82-3-9"
       width="22.373301"
       height="9.9436893"
       x="-8550.7529"
       y="2808.6892"
       ry="3.8669903"
       rx="0"
       transform="scale(-1,1)" /><rect
       style="fill:#ffffff;fill-opacity:1;stroke:none;stroke-width:1.148;stroke-linejoin:round;stroke-dasharray:none;stroke-opacity:1;paint-order:markers fill stroke"
       id="rect8-7-8-4-1-6-3-7-2-7"
       width="12.429611"
       height="30.383495"
       x="-8562.5322"
       y="2798.9436"
       ry="3.8669903"
       transform="scale(-1,1)" /><rect
       style="fill:#ffffff;fill-opacity:1;stroke:none;stroke-width:1.148;stroke-linejoin:round;stroke-dasharray:none;stroke-opacity:1;paint-order:markers fill stroke"
       id="rect8-5-6-2-0-3-7-93-29-7-5"
       width="12.429611"
       height="30.383495"
       x="-8529.415"
       y="2799.3877"
       ry="3.8669903"
       transform="scale(-1,1)" /><circle
       style="opacity:1;fill:#ffffff;fill-opacity:1;stroke:#000000;stroke-width:0.793;stroke-linejoin:round;stroke-dasharray:none;paint-order:markers fill stroke"
       id="path1-9-2-6-8-86-4-9"
       cx="8538.8379"
       cy="2721.4746"
       r="63.80534" /><path
       style="fill:#000000;stroke:#000000;stroke-width:1px;stroke-linecap:butt;stroke-linejoin:miter;stroke-opacity:1"
       d="m 8525.094,2696.0192 12.8447,0.018 -0.01,12.0161 -6.2143,-0.076 -11.4284,-2.9015 z"
       id="path32-6-9-6-00-16-7-3" /><path
       style="fill:#000000;stroke:#000000;stroke-width:1px;stroke-linecap:butt;stroke-linejoin:miter;stroke-opacity:1"
       d="m 8522.3186,2697.0903 -4.1023,7.9608 -10.9938,6.772 4.392,-9.0623 4.089,-6.856 z"
       id="path33-9-70-0-9-38-9-9" /><path
       style="fill:#000000;stroke:#000000;stroke-width:1px;stroke-linecap:butt;stroke-linejoin:miter;stroke-opacity:1"
       d="m 8513.7752,2695.4669 -5.7917,-0.7611 -5.2206,9.0521 -3.7385,12.1088 5.9819,-3.5182 4.1091,-8.5132 z"
       id="path34-4-4-4-8-72-3-3" /><path
       id="path35-6-9-2-54-08-3-6"
       style="fill:none;stroke:#000000;stroke-width:1px;stroke-linecap:butt;stroke-linejoin:miter;stroke-opacity:1"
       d="m 8543.3196,2713.1602 -5.7188,0.068 -3.4629,-0.041 c 0,0 -2.8379,0.5858 -3.2539,0.7188 -0.416,0.1331 -6.2461,2.5488 -6.2461,2.5488 l -4.3164,2.8476 -1.6875,2.4649 -1.0879,4.1992 0.049,7.3906 1.664,5.1309 2.2266,4.3086 3.9629,3.5019 5.4844,3.2422 3.9941,0.9473 3.8652,0.1855 v -0.033 l 3.7364,-0.1797 3.9921,-0.9472 5.4864,-3.2422 3.9629,-3.502 2.2265,-4.3086 1.6641,-5.1308 0.047,-7.3906 -1.086,-4.1993 -1.6875,-2.4648 -4.3164,-2.8477 c 0,0 -5.8301,-2.4157 -6.2461,-2.5488 -0.416,-0.133 -3.2558,-0.7187 -3.2558,-0.7187 z" /><path
       style="fill:#000000;stroke:#000000;stroke-width:1px;stroke-linecap:butt;stroke-linejoin:miter;stroke-opacity:1"
       d="m 8552.3649,2695.9918 -12.8447,0.018 0.01,12.0161 6.2143,-0.076 11.4284,-2.9015 z"
       id="path32-8-9-6-8-1-2-8-0" /><path
       style="fill:#000000;stroke:#000000;stroke-width:1px;stroke-linecap:butt;stroke-linejoin:miter;stroke-opacity:1"
       d="m 8555.1403,2697.0629 4.1023,7.9608 10.9938,6.772 -4.392,-9.0623 -4.089,-6.856 z"
       id="path33-1-0-9-5-5-9-0-2" /><path
       style="fill:#000000;stroke:#000000;stroke-width:1px;stroke-linecap:butt;stroke-linejoin:miter;stroke-opacity:1"
       d="m 8563.6837,2695.4395 5.7917,-0.7611 5.2206,9.0521 3.7385,12.1088 -5.9819,-3.5182 -4.1091,-8.5132 z"
       id="path34-7-6-4-8-9-8-74-4" /></g><g
     id="g39-5-1-4-7-9-6"
     transform="matrix(0.67889176,0,0,0.67889176,-5555.2502,-1649.6238)"><rect
       style="fill:#ffffff;stroke:#ffffff;stroke-width:2.00905;stroke-linejoin:round;stroke-dasharray:none;stroke-opacity:1;paint-order:markers fill stroke"
       id="rect13-1-1-4-5-0-4-2"
       width="5.3007989"
       height="39.093395"
       x="9132.1172"
       y="2802.0266"
       ry="2.6503994" /><rect
       style="fill:#ffffff;stroke:#ffffff;stroke-width:2.00905;stroke-linejoin:round;stroke-dasharray:none;stroke-opacity:1;paint-order:markers fill stroke"
       id="rect13-6-7-7-29-8-27-7-0"
       width="5.3007989"
       height="39.093395"
       x="9232.248"
       y="2801.9897"
       ry="2.6503994" /><path
       id="rect12-1-8-0-6-64-3-6"
       style="fill:#ffffff;stroke:#ffffff;stroke-width:2.00905;stroke-linejoin:round;stroke-dasharray:none;stroke-opacity:1;paint-order:markers fill stroke"
       d="m 9083.0849,2712.5762 c -2.5696,0 -4.6387,2.0691 -4.6387,4.6387 v 80.8359 c 0,2.5696 2.0691,4.6387 4.6387,4.6387 h 12.5898 l 5.3008,10.2695 9.9395,7.291 15.2382,2.9805 h 83.8204 v -0.02 h 31.5019 l 15.2402,-2.9805 9.9375,-7.289 5.293,-10.252 h 9.9199 c 2.5696,0 4.6367,-2.0691 4.6367,-4.6387 v -80.8359 c 0,-2.5696 -2.0671,-4.6387 -4.6367,-4.6387 z" /><rect
       style="opacity:1;fill:#ffffff;fill-opacity:1;stroke:#000000;stroke-width:0.60937;stroke-linejoin:round;stroke-dasharray:none;stroke-opacity:1;paint-order:markers fill stroke"
       id="rect35-7-5-3-7-0-1"
       width="88.29409"
       height="14.962031"
       x="9140.6172"
       y="2501.0708"
       ry="3.1972475" /><path
       id="path15-6-7-3-5-2-5-0"
       style="fill:#ffffff;stroke:#000000;stroke-width:1.19943px;stroke-linecap:butt;stroke-linejoin:miter;stroke-opacity:1"
       d="m 9124.8414,2510.484 -7.2879,1.9865 -47.7079,36.4422 v 61.6233 l -1.9889,1.9865 1.3258,153.7244 11.2636,8.6138 34.0831,0.1312 -0.059,0.5341 69.0987,-0.267 68.4918,0.2648 -0.032,-0.5295 34.0573,-0.1312 11.2634,-8.614 1.326,-153.7242 -1.9889,-1.9866 v -61.6232 l -47.708,-36.4422 -7.288,-1.9866 h -6.3602 v 0 z" /><rect
       style="fill:#000000;fill-opacity:1;stroke:#000000;stroke-width:2.3513;stroke-linejoin:round;stroke-dasharray:none;stroke-opacity:1;paint-order:markers fill stroke"
       id="rect16-07-7-12-6-69-5-8"
       width="49.298393"
       height="25.403416"
       x="9126.9697"
       y="2558.8267"
       rx="0"
       ry="4.4510245" /><rect
       style="fill:#000000;fill-opacity:1;stroke:#000000;stroke-width:2.70578;stroke-linejoin:round;stroke-dasharray:none;stroke-opacity:1;paint-order:markers fill stroke"
       id="rect16-5-46-6-7-3-59-0-6"
       width="58.076199"
       height="28.556036"
       x="-2598.4829"
       y="9084.1973"
       rx="0"
       ry="5.003406"
       transform="matrix(0.00130631,-0.99999915,0.99999897,0.00143471,0,0)" /><rect
       style="fill:#000000;fill-opacity:1;stroke:#000000;stroke-width:2.3513;stroke-linejoin:round;stroke-dasharray:none;stroke-opacity:1;paint-order:markers fill stroke"
       id="rect16-0-5-6-8-9-4-0-9"
       width="49.298393"
       height="25.403416"
       x="-9239.4238"
       y="2558.8894"
       rx="0"
       ry="4.4510245"
       transform="scale(-1,1)" /><rect
       style="fill:#000000;fill-opacity:1;stroke:#000000;stroke-width:2.70578;stroke-linejoin:round;stroke-dasharray:none;stroke-opacity:1;paint-order:markers fill stroke"
       id="rect16-5-4-7-7-4-7-6-4-0"
       width="58.076199"
       height="28.556036"
       x="-2624.8958"
       y="-9282.1807"
       rx="0"
       ry="5.003406"
       transform="matrix(-0.00130631,-0.99999915,-0.99999897,0.00143471,0,0)" /><path
       id="rect17-8-7-8-3-07-7-0"
       style="fill:#000000;stroke:#000000;stroke-width:2.00602;stroke-linejoin:round;paint-order:markers fill stroke"
       d="m 9078.7763,2718.2068 104.2336,24.1292 103.4945,-24.1292 v 20.2123 l -103.4945,24.1293 -104.2336,-24.1293 z"
       sodipodi:nodetypes="ccccccc" /><path
       id="rect17-5-5-7-6-2-5-4-9"
       style="fill:#000000;stroke:#000000;stroke-width:2.00602;stroke-linejoin:round;paint-order:markers fill stroke"
       d="m 9079.0531,2752.381 104.2337,24.1293 103.4944,-24.1293 v 20.2124 l -103.4944,24.1293 -104.2337,-24.1293 z"
       sodipodi:nodetypes="ccccccc" /><rect
       style="fill:none;fill-opacity:1;stroke:#ff0000;stroke-width:2.00905;stroke-linejoin:round;stroke-dasharray:none;stroke-opacity:1;paint-order:markers fill stroke"
       id="rect18-8-8-2-7-23-9-0"
       width="0.33129993"
       height="1.9877996"
       x="9288.1602"
       y="2712.9072" /><rect
       style="fill:#000000;stroke:#ffffff;stroke-width:2.00905;stroke-linejoin:round;stroke-dasharray:none;stroke-opacity:1;paint-order:markers fill stroke"
       id="rect15-0-7-5-7-13-7-4"
       width="29.816994"
       height="40.418594"
       x="9166.5732"
       y="2605.897"
       rx="11.926807"
       ry="11.926807" /><rect
       style="fill:none;stroke:#000000;stroke-width:1.98016;stroke-linejoin:round;stroke-dasharray:none;stroke-opacity:1;paint-order:markers fill stroke"
       id="rect14-1-9-6-1-5-2-7"
       width="131.22368"
       height="133.21147"
       x="9117.5264"
       y="2587.9927"
       ry="11.583615"
       rx="11.929435" /><path
       id="rect12-1-1-7-8-8-8-9-8"
       style="fill:none;stroke:#000000;stroke-width:3.109;stroke-linejoin:round;stroke-dasharray:none;stroke-opacity:1;paint-order:markers fill stroke"
       d="m 9083.0543,2712.5534 c -2.5696,0 -4.6387,2.0691 -4.6387,4.6387 v 80.8359 c 0,2.5696 2.0691,4.6387 4.6387,4.6387 h 198.7812 c 2.5696,0 4.6367,-2.0691 4.6367,-4.6387 v -80.8359 c 0,-2.5696 -2.0671,-4.6387 -4.6367,-4.6387 h -33.5195 c -1.3409,4.9737 -5.9713,8.6289 -11.5254,8.6289 h -107.3652 c -5.5542,0 -10.1845,-3.6552 -11.5254,-8.6289 z" /><rect
       style="opacity:1;fill:#ffffff;fill-opacity:1;stroke:#000000;stroke-width:0.61874;stroke-linejoin:round;stroke-dasharray:none;stroke-opacity:1;paint-order:markers fill stroke"
       id="rect36-7-7-9-1-6-3"
       width="57.856083"
       height="26.885798"
       x="9123.4404"
       y="2519.3606"
       ry="2.1695061" /><rect
       style="fill:#ffffff;fill-opacity:1;stroke:#000000;stroke-width:0.61874;stroke-linejoin:round;stroke-dasharray:none;stroke-opacity:1;paint-order:markers fill stroke"
       id="rect36-5-2-7-4-77-1-6"
       width="57.856083"
       height="26.885798"
       x="-9242.6416"
       y="2519.366"
       ry="2.1695061"
       transform="scale(-1,1)" /></g><text
     xml:space="preserve"
     style="font-style:normal;font-weight:normal;font-size:136.968px;line-height:1.25;font-family:sans-serif;fill:#000000;fill-opacity:1;stroke:none;stroke-width:3.42422"
     x="63.378906"
     y="467.2334"
     id="text37-54-3-2-0-1-9"><tspan
       sodipodi:role="line"
       id="tspan37-3-8-0-19-4-4"
       x="63.378906"
       y="467.2334"
       style="font-style:normal;font-variant:normal;font-weight:normal;font-stretch:normal;font-family:'Futura Md BT';-inkscape-font-specification:'Futura Md BT';fill:#ffffff;stroke-width:3.42422">ENTUSIASTA Mobilidade</tspan></text><text
     xml:space="preserve"
     style="font-size:54.4429px;line-height:1.25;font-family:sans-serif;fill:#ffffff;stroke-width:1.45829"
     x="1013.623"
     y="393.76709"
     id="text3-7-4-4"><tspan
       sodipodi:role="line"
       id="tspan3-1-2-9"
       x="1013.623"
       y="393.76709"
       style="fill:#ffffff;stroke-width:1.45829">da</tspan></text></svg>
